<mxfile host="Electron" modified="2024-08-01T12:22:37.583Z" agent="Mozilla/5.0 (Windows NT 10.0; Win64; x64) AppleWebKit/537.36 (KHTML, like Gecko) draw.io/23.1.5 Chrome/120.0.6099.109 Electron/28.1.0 Safari/537.36" etag="QctWBI7PzJV43Fp1zE-i" version="23.1.5" type="device">
  <diagram name="Page-1" id="0wTUyG5feCuYv4wR_hWp">
    <mxGraphModel dx="2424" dy="1410" grid="1" gridSize="10" guides="1" tooltips="1" connect="1" arrows="1" fold="1" page="1" pageScale="1" pageWidth="850" pageHeight="1100" math="0" shadow="0">
      <root>
        <mxCell id="0" />
        <mxCell id="1" parent="0" />
        <mxCell id="-pF2sT0NdR2fO305Mv4f-7" style="edgeStyle=orthogonalEdgeStyle;rounded=0;orthogonalLoop=1;jettySize=auto;html=1;exitX=1;exitY=0.5;exitDx=0;exitDy=0;entryX=0;entryY=0.5;entryDx=0;entryDy=0;" parent="1" source="-pF2sT0NdR2fO305Mv4f-1" target="-pF2sT0NdR2fO305Mv4f-10" edge="1">
          <mxGeometry relative="1" as="geometry">
            <mxPoint x="450" y="140" as="targetPoint" />
          </mxGeometry>
        </mxCell>
        <mxCell id="-pF2sT0NdR2fO305Mv4f-8" value="All chosen" style="edgeLabel;html=1;align=center;verticalAlign=middle;resizable=0;points=[];" parent="-pF2sT0NdR2fO305Mv4f-7" vertex="1" connectable="0">
          <mxGeometry x="-0.3197" y="2" relative="1" as="geometry">
            <mxPoint x="-27" y="-61" as="offset" />
          </mxGeometry>
        </mxCell>
        <mxCell id="-pF2sT0NdR2fO305Mv4f-1" value="Restaurant Selection" style="whiteSpace=wrap;html=1;" parent="1" vertex="1">
          <mxGeometry x="220" y="110" width="100" height="60" as="geometry" />
        </mxCell>
        <mxCell id="-pF2sT0NdR2fO305Mv4f-3" style="edgeStyle=orthogonalEdgeStyle;rounded=0;orthogonalLoop=1;jettySize=auto;html=1;exitX=1;exitY=0.5;exitDx=0;exitDy=0;" parent="1" source="-pF2sT0NdR2fO305Mv4f-4" target="-pF2sT0NdR2fO305Mv4f-1" edge="1">
          <mxGeometry relative="1" as="geometry">
            <mxPoint x="280" y="140" as="targetPoint" />
          </mxGeometry>
        </mxCell>
        <mxCell id="-pF2sT0NdR2fO305Mv4f-4" value="Create random map/player order" style="whiteSpace=wrap;html=1;" parent="1" vertex="1">
          <mxGeometry x="50" y="110" width="100" height="60" as="geometry" />
        </mxCell>
        <mxCell id="-pF2sT0NdR2fO305Mv4f-5" style="edgeStyle=orthogonalEdgeStyle;rounded=0;orthogonalLoop=1;jettySize=auto;html=1;exitX=0.75;exitY=0;exitDx=0;exitDy=0;entryX=0.25;entryY=0;entryDx=0;entryDy=0;" parent="1" source="-pF2sT0NdR2fO305Mv4f-1" target="-pF2sT0NdR2fO305Mv4f-1" edge="1">
          <mxGeometry relative="1" as="geometry">
            <Array as="points">
              <mxPoint x="295" y="70" />
              <mxPoint x="245" y="70" />
            </Array>
          </mxGeometry>
        </mxCell>
        <mxCell id="-pF2sT0NdR2fO305Mv4f-6" value="Players remain" style="edgeLabel;html=1;align=center;verticalAlign=middle;resizable=0;points=[];" parent="-pF2sT0NdR2fO305Mv4f-5" vertex="1" connectable="0">
          <mxGeometry x="0.0667" y="2" relative="1" as="geometry">
            <mxPoint as="offset" />
          </mxGeometry>
        </mxCell>
        <mxCell id="-pF2sT0NdR2fO305Mv4f-13" style="edgeStyle=orthogonalEdgeStyle;rounded=0;orthogonalLoop=1;jettySize=auto;html=1;exitX=0.5;exitY=1;exitDx=0;exitDy=0;" parent="1" source="-pF2sT0NdR2fO305Mv4f-9" target="-pF2sT0NdR2fO305Mv4f-11" edge="1">
          <mxGeometry relative="1" as="geometry" />
        </mxCell>
        <mxCell id="EkHA40KmzMZu4XEbDlUu-1" value="All Ready" style="edgeLabel;html=1;align=center;verticalAlign=middle;resizable=0;points=[];" vertex="1" connectable="0" parent="-pF2sT0NdR2fO305Mv4f-13">
          <mxGeometry x="-0.2114" y="-1" relative="1" as="geometry">
            <mxPoint x="1" y="5" as="offset" />
          </mxGeometry>
        </mxCell>
        <mxCell id="-pF2sT0NdR2fO305Mv4f-9" value="Select employees" style="whiteSpace=wrap;html=1;" parent="1" vertex="1">
          <mxGeometry x="450" y="110" width="120" height="60" as="geometry" />
        </mxCell>
        <mxCell id="-pF2sT0NdR2fO305Mv4f-16" value="Frontend" style="swimlane;whiteSpace=wrap;html=1;" parent="1" vertex="1">
          <mxGeometry x="420" y="70" width="190" height="820" as="geometry" />
        </mxCell>
        <mxCell id="-pF2sT0NdR2fO305Mv4f-18" style="edgeStyle=orthogonalEdgeStyle;rounded=0;orthogonalLoop=1;jettySize=auto;html=1;exitX=0.5;exitY=1;exitDx=0;exitDy=0;" parent="-pF2sT0NdR2fO305Mv4f-16" source="-pF2sT0NdR2fO305Mv4f-10" target="EkHA40KmzMZu4XEbDlUu-25" edge="1">
          <mxGeometry relative="1" as="geometry">
            <mxPoint x="90" y="480" as="targetPoint" />
          </mxGeometry>
        </mxCell>
        <mxCell id="-pF2sT0NdR2fO305Mv4f-10" value="Use employees" style="whiteSpace=wrap;html=1;" parent="-pF2sT0NdR2fO305Mv4f-16" vertex="1">
          <mxGeometry x="30" y="310" width="120" height="60" as="geometry" />
        </mxCell>
        <mxCell id="-pF2sT0NdR2fO305Mv4f-15" style="edgeStyle=orthogonalEdgeStyle;rounded=0;orthogonalLoop=1;jettySize=auto;html=1;exitX=0.5;exitY=1;exitDx=0;exitDy=0;" parent="-pF2sT0NdR2fO305Mv4f-16" source="-pF2sT0NdR2fO305Mv4f-11" target="-pF2sT0NdR2fO305Mv4f-10" edge="1">
          <mxGeometry relative="1" as="geometry" />
        </mxCell>
        <mxCell id="-pF2sT0NdR2fO305Mv4f-11" value="Resolve player order" style="whiteSpace=wrap;html=1;" parent="-pF2sT0NdR2fO305Mv4f-16" vertex="1">
          <mxGeometry x="30" y="190" width="120" height="60" as="geometry" />
        </mxCell>
        <mxCell id="EkHA40KmzMZu4XEbDlUu-25" value="Wait for other players" style="whiteSpace=wrap;html=1;" vertex="1" parent="-pF2sT0NdR2fO305Mv4f-16">
          <mxGeometry x="30" y="440" width="120" height="60" as="geometry" />
        </mxCell>
        <mxCell id="EkHA40KmzMZu4XEbDlUu-28" value="Salary resolution" style="whiteSpace=wrap;html=1;" vertex="1" parent="-pF2sT0NdR2fO305Mv4f-16">
          <mxGeometry x="35" y="590" width="120" height="60" as="geometry" />
        </mxCell>
        <mxCell id="EkHA40KmzMZu4XEbDlUu-36" value="Game ends" style="whiteSpace=wrap;html=1;" vertex="1" parent="-pF2sT0NdR2fO305Mv4f-16">
          <mxGeometry x="30" y="740" width="120" height="60" as="geometry" />
        </mxCell>
        <mxCell id="EkHA40KmzMZu4XEbDlUu-2" value="Backend" style="swimlane;whiteSpace=wrap;html=1;" vertex="1" parent="1">
          <mxGeometry x="706.43" y="70" width="690" height="740" as="geometry" />
        </mxCell>
        <mxCell id="EkHA40KmzMZu4XEbDlUu-9" style="edgeStyle=orthogonalEdgeStyle;rounded=0;orthogonalLoop=1;jettySize=auto;html=1;" edge="1" parent="EkHA40KmzMZu4XEbDlUu-2" source="EkHA40KmzMZu4XEbDlUu-11" target="EkHA40KmzMZu4XEbDlUu-19">
          <mxGeometry relative="1" as="geometry">
            <mxPoint x="180" y="410" as="targetPoint" />
          </mxGeometry>
        </mxCell>
        <mxCell id="EkHA40KmzMZu4XEbDlUu-10" value="Bank broke" style="edgeLabel;html=1;align=center;verticalAlign=middle;resizable=0;points=[];" vertex="1" connectable="0" parent="EkHA40KmzMZu4XEbDlUu-9">
          <mxGeometry x="-0.3558" relative="1" as="geometry">
            <mxPoint x="33" y="10" as="offset" />
          </mxGeometry>
        </mxCell>
        <mxCell id="EkHA40KmzMZu4XEbDlUu-11" value="Dinnertime" style="whiteSpace=wrap;html=1;" vertex="1" parent="EkHA40KmzMZu4XEbDlUu-2">
          <mxGeometry x="30" y="440" width="120" height="60" as="geometry" />
        </mxCell>
        <mxCell id="EkHA40KmzMZu4XEbDlUu-15" value="Milestone resolution" style="whiteSpace=wrap;html=1;" vertex="1" parent="EkHA40KmzMZu4XEbDlUu-2">
          <mxGeometry x="180" y="40" width="120" height="60" as="geometry" />
        </mxCell>
        <mxCell id="EkHA40KmzMZu4XEbDlUu-29" style="edgeStyle=orthogonalEdgeStyle;rounded=0;orthogonalLoop=1;jettySize=auto;html=1;exitX=0.5;exitY=0;exitDx=0;exitDy=0;entryX=1;entryY=0.5;entryDx=0;entryDy=0;" edge="1" parent="EkHA40KmzMZu4XEbDlUu-2" source="EkHA40KmzMZu4XEbDlUu-16" target="EkHA40KmzMZu4XEbDlUu-15">
          <mxGeometry relative="1" as="geometry" />
        </mxCell>
        <mxCell id="EkHA40KmzMZu4XEbDlUu-42" value="Marketing resolved" style="edgeLabel;html=1;align=center;verticalAlign=middle;resizable=0;points=[];" vertex="1" connectable="0" parent="EkHA40KmzMZu4XEbDlUu-29">
          <mxGeometry x="-0.4213" y="2" relative="1" as="geometry">
            <mxPoint as="offset" />
          </mxGeometry>
        </mxCell>
        <mxCell id="EkHA40KmzMZu4XEbDlUu-16" value="Marketing resolution" style="whiteSpace=wrap;html=1;" vertex="1" parent="EkHA40KmzMZu4XEbDlUu-2">
          <mxGeometry x="410" y="630" width="120" height="60" as="geometry" />
        </mxCell>
        <mxCell id="EkHA40KmzMZu4XEbDlUu-17" style="edgeStyle=orthogonalEdgeStyle;rounded=0;orthogonalLoop=1;jettySize=auto;html=1;" edge="1" parent="EkHA40KmzMZu4XEbDlUu-2" source="EkHA40KmzMZu4XEbDlUu-19" target="EkHA40KmzMZu4XEbDlUu-21">
          <mxGeometry relative="1" as="geometry">
            <mxPoint x="245" y="650" as="targetPoint" />
          </mxGeometry>
        </mxCell>
        <mxCell id="EkHA40KmzMZu4XEbDlUu-18" value="1st time" style="edgeLabel;html=1;align=center;verticalAlign=middle;resizable=0;points=[];" vertex="1" connectable="0" parent="EkHA40KmzMZu4XEbDlUu-17">
          <mxGeometry x="-0.0857" y="1" relative="1" as="geometry">
            <mxPoint as="offset" />
          </mxGeometry>
        </mxCell>
        <mxCell id="EkHA40KmzMZu4XEbDlUu-19" value="Resolve bank break" style="whiteSpace=wrap;html=1;" vertex="1" parent="EkHA40KmzMZu4XEbDlUu-2">
          <mxGeometry x="165" y="510" width="120" height="60" as="geometry" />
        </mxCell>
        <mxCell id="EkHA40KmzMZu4XEbDlUu-21" value="Reveal bank cards + ceo changes" style="whiteSpace=wrap;html=1;" vertex="1" parent="EkHA40KmzMZu4XEbDlUu-2">
          <mxGeometry x="20" y="590" width="120" height="60" as="geometry" />
        </mxCell>
        <mxCell id="EkHA40KmzMZu4XEbDlUu-26" style="edgeStyle=orthogonalEdgeStyle;rounded=0;orthogonalLoop=1;jettySize=auto;html=1;exitX=1;exitY=0.5;exitDx=0;exitDy=0;entryX=0;entryY=0.5;entryDx=0;entryDy=0;" edge="1" parent="1" source="EkHA40KmzMZu4XEbDlUu-25" target="EkHA40KmzMZu4XEbDlUu-11">
          <mxGeometry relative="1" as="geometry" />
        </mxCell>
        <mxCell id="EkHA40KmzMZu4XEbDlUu-27" value="All taken turns" style="edgeLabel;html=1;align=center;verticalAlign=middle;resizable=0;points=[];" vertex="1" connectable="0" parent="EkHA40KmzMZu4XEbDlUu-26">
          <mxGeometry x="-0.3614" y="-6" relative="1" as="geometry">
            <mxPoint x="-24" as="offset" />
          </mxGeometry>
        </mxCell>
        <mxCell id="EkHA40KmzMZu4XEbDlUu-23" style="edgeStyle=orthogonalEdgeStyle;rounded=0;orthogonalLoop=1;jettySize=auto;html=1;entryX=0.5;entryY=0;entryDx=0;entryDy=0;" edge="1" parent="1" source="EkHA40KmzMZu4XEbDlUu-21" target="EkHA40KmzMZu4XEbDlUu-28">
          <mxGeometry relative="1" as="geometry">
            <mxPoint x="630" y="700" as="targetPoint" />
            <mxPoint x="760" y="620.0000000000002" as="sourcePoint" />
            <Array as="points">
              <mxPoint x="620" y="690" />
              <mxPoint x="620" y="610" />
              <mxPoint x="510" y="610" />
            </Array>
          </mxGeometry>
        </mxCell>
        <mxCell id="EkHA40KmzMZu4XEbDlUu-24" value="Send dinnertime statuses, new game state &lt;br&gt;and request salary updates" style="edgeLabel;html=1;align=center;verticalAlign=middle;resizable=0;points=[];" vertex="1" connectable="0" parent="EkHA40KmzMZu4XEbDlUu-23">
          <mxGeometry x="-0.0543" y="-4" relative="1" as="geometry">
            <mxPoint x="-127" y="14" as="offset" />
          </mxGeometry>
        </mxCell>
        <mxCell id="EkHA40KmzMZu4XEbDlUu-35" style="edgeStyle=orthogonalEdgeStyle;rounded=0;orthogonalLoop=1;jettySize=auto;html=1;" edge="1" parent="1" source="EkHA40KmzMZu4XEbDlUu-15" target="-pF2sT0NdR2fO305Mv4f-9">
          <mxGeometry relative="1" as="geometry">
            <mxPoint x="1740" y="50" as="targetPoint" />
          </mxGeometry>
        </mxCell>
        <mxCell id="EkHA40KmzMZu4XEbDlUu-43" value="Increment round and update&lt;br&gt;gamestate on frontend" style="edgeLabel;html=1;align=center;verticalAlign=middle;resizable=0;points=[];" vertex="1" connectable="0" parent="EkHA40KmzMZu4XEbDlUu-35">
          <mxGeometry x="0.0292" relative="1" as="geometry">
            <mxPoint x="44" as="offset" />
          </mxGeometry>
        </mxCell>
        <mxCell id="EkHA40KmzMZu4XEbDlUu-37" style="edgeStyle=orthogonalEdgeStyle;rounded=0;orthogonalLoop=1;jettySize=auto;html=1;exitX=0.5;exitY=1;exitDx=0;exitDy=0;entryX=1;entryY=0.5;entryDx=0;entryDy=0;" edge="1" parent="1" source="EkHA40KmzMZu4XEbDlUu-19" target="EkHA40KmzMZu4XEbDlUu-36">
          <mxGeometry relative="1" as="geometry" />
        </mxCell>
        <mxCell id="EkHA40KmzMZu4XEbDlUu-38" value="2nd time" style="edgeLabel;html=1;align=center;verticalAlign=middle;resizable=0;points=[];" vertex="1" connectable="0" parent="EkHA40KmzMZu4XEbDlUu-37">
          <mxGeometry x="-0.5516" y="1" relative="1" as="geometry">
            <mxPoint x="-206" y="87" as="offset" />
          </mxGeometry>
        </mxCell>
        <mxCell id="EkHA40KmzMZu4XEbDlUu-6" style="edgeStyle=orthogonalEdgeStyle;rounded=0;orthogonalLoop=1;jettySize=auto;html=1;exitX=0.25;exitY=1;exitDx=0;exitDy=0;" edge="1" parent="1" source="EkHA40KmzMZu4XEbDlUu-11" target="EkHA40KmzMZu4XEbDlUu-28">
          <mxGeometry relative="1" as="geometry">
            <mxPoint x="790.0000000000005" y="620.0000000000002" as="targetPoint" />
          </mxGeometry>
        </mxCell>
        <mxCell id="EkHA40KmzMZu4XEbDlUu-7" value="Text" style="edgeLabel;html=1;align=center;verticalAlign=middle;resizable=0;points=[];" vertex="1" connectable="0" parent="EkHA40KmzMZu4XEbDlUu-6">
          <mxGeometry x="-0.2" y="-5" relative="1" as="geometry">
            <mxPoint as="offset" />
          </mxGeometry>
        </mxCell>
        <mxCell id="EkHA40KmzMZu4XEbDlUu-8" value="Bank not broke" style="edgeLabel;html=1;align=center;verticalAlign=middle;resizable=0;points=[];" vertex="1" connectable="0" parent="EkHA40KmzMZu4XEbDlUu-6">
          <mxGeometry x="-0.15" y="-8" relative="1" as="geometry">
            <mxPoint as="offset" />
          </mxGeometry>
        </mxCell>
        <mxCell id="EkHA40KmzMZu4XEbDlUu-40" style="edgeStyle=orthogonalEdgeStyle;rounded=0;orthogonalLoop=1;jettySize=auto;html=1;exitX=0.5;exitY=1;exitDx=0;exitDy=0;" edge="1" parent="1" source="EkHA40KmzMZu4XEbDlUu-28" target="EkHA40KmzMZu4XEbDlUu-16">
          <mxGeometry relative="1" as="geometry" />
        </mxCell>
        <mxCell id="EkHA40KmzMZu4XEbDlUu-41" value="All players ready" style="edgeLabel;html=1;align=center;verticalAlign=middle;resizable=0;points=[];" vertex="1" connectable="0" parent="EkHA40KmzMZu4XEbDlUu-40">
          <mxGeometry x="0.6837" relative="1" as="geometry">
            <mxPoint as="offset" />
          </mxGeometry>
        </mxCell>
      </root>
    </mxGraphModel>
  </diagram>
</mxfile>
